# xmcd
#
# Track frame offsets:
#   150
#   15968
#   30017
#   45361
#   58238
#   72931
#   85765
#   97147
#   110518
#   124289
#   134296
#   148813
#   159956
#   174834
#   190944
#   206335
#   220572
#   232199
#   246591
#   260140
#   274800
#   290904
#   307570
#   322018
#
# Disc length: 4449 seconds
#
# Revision: 0
# Processed by: cddbd v1.5.2PL0 Copyright (c) Steve Scherf et al.
# Submitted via: uFREEDB ActiveX Control 1.5
#
DISCID=5c115f18
DTITLE=Tarcis Andrade - 24 exclusivo
DYEAR=1900
DGENRE=Alternative
TTITLE0=Não chore amor
TTITLE1=Perto dos meus olhos
TTITLE2=Volte pra mim
TTITLE3=Eu queria
TTITLE4=Não consigo te esquecer
TTITLE5=Amigo
TTITLE6=Juro vou tentar lhe esquecer
TTITLE7=Nossa felicidade
TTITLE8=Sem ela
TTITLE9=O que é importante
TTITLE10=Fazendo amor fazendo carinho
TTITLE11=Pense mais um pouco
TTITLE12=Você não voltou
TTITLE13=Sem você
TTITLE14=Me faça feliz
TTITLE15=Você pra mim morreu
TTITLE16=Momentos que passamos
TTITLE17=Fatalidade
TTITLE18=Uma lágrima
TTITLE19=Foi bom demais
TTITLE20=De igual pra igual
TTITLE21=Chame por mim
TTITLE22=Sinto sede por você
TTITLE23=
EXTD=
EXTT0=
EXTT1=
EXTT2=
EXTT3=
EXTT4=
EXTT5=
EXTT6=
EXTT7=
EXTT8=
EXTT9=
EXTT10=
EXTT11=
EXTT12=
EXTT13=
EXTT14=
EXTT15=
EXTT16=
EXTT17=
EXTT18=
EXTT19=
EXTT20=
EXTT21=
EXTT22=
EXTT23=
PLAYORDER=
